nColumns=28
nRows=80
DataType=double
version=3
OpenSimVersion=4.1
endheader
time	ground_force_1_vx	ground_force_1_vy	ground_force_1_vz	ground_force_1_px	ground_force_1_py	ground_force_1_pz	ground_force_1_mx	ground_force_1_my	ground_force_1_mz	ground_force_2_vx	ground_force_2_vy	ground_force_2_vz	ground_force_2_px	ground_force_2_py	ground_force_2_pz	ground_force_2_mx	ground_force_2_my	ground_force_2_mz	ground_force_3_vx	ground_force_3_vy	ground_force_3_vz	ground_force_3_px	ground_force_3_py	ground_force_3_pz	ground_force_3_mx	ground_force_3_my	ground_force_3_mz
6.4	-11.7187	579.029	-40.9746	-0.22713	0.006	-0.400634	0	-4.10655	0	3.7672	108.772	27.9882	-0.167429	0.006	-0.78749	0	1.91977	0	0	0	0	0	0	0	0	0	0
6.41	-12.1423	582.974	-40.1546	-0.227245	0.006	-0.400731	0	-4.17383	0	3.76968	110.708	28.1657	-0.167772	0.006	-0.787619	0	1.94807	0	0	0	0	0	0	0	0	0	0
6.42	-12.3704	586.939	-39.2389	-0.227429	0.006	-0.400868	0	-4.23215	0	3.77732	112.657	28.251	-0.168152	0.006	-0.787676	0	1.97589	0	0	0	0	0	0	0	0	0	0
6.43	-12.3847	590.851	-38.2462	-0.227672	0.006	-0.401035	0	-4.28094	0	3.79722	114.601	28.2486	-0.168565	0.006	-0.787666	0	2.00305	0	0	0	0	0	0	0	0	0	0
6.44	-12.1808	594.655	-37.1955	-0.227961	0.006	-0.401223	0	-4.3204	0	3.83568	116.524	28.1675	-0.169011	0.006	-0.787595	0	2.02921	0	0	0	0	0	0	0	0	0	0
6.45	-11.7654	598.316	-36.1077	-0.22828	0.006	-0.401421	0	-4.35143	0	3.89731	118.421	28.0212	-0.169496	0.006	-0.787473	0	2.05381	0	0	0	0	0	0	0	0	0	0
6.46	-11.1554	601.821	-35.0071	-0.22861	0.006	-0.401619	0	-4.37548	0	3.98455	120.291	27.8262	-0.170024	0.006	-0.787307	0	2.07627	0	0	0	0	0	0	0	0	0	0
6.47	-10.3789	605.191	-33.9188	-0.228935	0.006	-0.401808	0	-4.39457	0	4.09734	122.144	27.5997	-0.170602	0.006	-0.787108	0	2.09608	0	0	0	0	0	0	0	0	0	0
6.48	-9.47178	608.479	-32.8655	-0.229239	0.006	-0.40198	0	-4.41126	0	4.23283	123.998	27.3589	-0.171236	0.006	-0.786884	0	2.11284	0	0	0	0	0	0	0	0	0	0
6.49	-8.47206	611.76	-31.8644	-0.229505	0.006	-0.402128	0	-4.42844	0	4.38514	125.877	27.12	-0.171932	0.006	-0.786643	0	2.12641	0	0	0	0	0	0	0	0	0	0
6.5	-7.41725	615.119	-30.9281	-0.229724	0.006	-0.402248	0	-4.44906	0	4.54676	127.811	26.8973	-0.172697	0.006	-0.786394	0	2.13716	0	0	0	0	0	0	0	0	0	0
6.51	-6.34323	618.649	-30.0641	-0.229885	0.006	-0.402338	0	-4.47606	0	4.71	129.835	26.7033	-0.173539	0.006	-0.786142	0	2.14597	0	0	0	0	0	0	0	0	0	0
6.52	-5.28126	622.45	-29.2717	-0.229984	0.006	-0.402397	0	-4.51236	0	4.86883	131.984	26.5488	-0.174463	0.006	-0.785894	0	2.15381	0	0	0	0	0	0	0	0	0	0
6.53	-4.25478	626.614	-28.5427	-0.230019	0.006	-0.402427	0	-4.56057	0	5.01989	134.288	26.4419	-0.175474	0.006	-0.785656	0	2.16163	0	0	0	0	0	0	0	0	0	0
6.54	-3.27724	631.221	-27.8663	-0.229991	0.006	-0.402428	0	-4.62263	0	5.16191	136.771	26.3875	-0.176572	0.006	-0.785433	0	2.17034	0	0	0	0	0	0	0	0	0	0
6.55	-2.35315	636.329	-27.2324	-0.229906	0.006	-0.402401	0	-4.69949	0	5.29411	139.446	26.3877	-0.177753	0.006	-0.785231	0	2.1808	0	0	0	0	0	0	0	0	0	0
6.56	-1.48134	641.969	-26.6324	-0.229768	0.006	-0.402349	0	-4.79104	0	5.41454	142.31	26.441	-0.179005	0.006	-0.785053	0	2.19366	0	0	0	0	0	0	0	0	0	0
6.57	-0.659804	648.135	-26.0616	-0.229582	0.006	-0.402272	0	-4.896	0	5.5197	145.351	26.543	-0.180312	0.006	-0.784898	0	2.20926	0	0	0	0	0	0	0	0	0	0
6.58	0.110893	654.784	-25.5206	-0.229352	0.006	-0.402171	0	-5.01199	0	5.60475	148.542	26.6856	-0.181654	0.006	-0.784765	0	2.22763	0	0	0	0	0	0	0	0	0	0
6.59	0.826221	661.831	-25.0138	-0.229078	0.006	-0.402045	0	-5.13582	0	5.66372	151.846	26.8581	-0.183007	0.006	-0.784653	0	2.24838	0	0	0	0	0	0	0	0	0	0
6.6	1.47618	669.159	-24.5486	-0.228764	0.006	-0.401896	0	-5.26363	0	5.69006	155.219	27.0489	-0.184344	0.006	-0.78456	0	2.27083	0	0	0	0	0	0	0	0	0	0
6.61	2.04522	676.615	-24.1335	-0.22841	0.006	-0.401726	0	-5.3911	0	5.67775	158.614	27.2474	-0.185638	0.006	-0.784484	0	2.29414	0	0	0	0	0	0	0	0	0	0
6.62	2.51502	684.024	-23.7775	-0.228019	0.006	-0.401538	0	-5.51364	0	5.62249	161.983	27.4445	-0.186864	0.006	-0.784421	0	2.31738	0	0	0	0	0	0	0	0	0	0
6.63	2.867	691.194	-23.4877	-0.227596	0.006	-0.401336	0	-5.6267	0	5.52177	165.275	27.6327	-0.188003	0.006	-0.784367	0	2.33957	0	0	0	0	0	0	0	0	0	0
6.64	3.08365	697.933	-23.2674	-0.227146	0.006	-0.401125	0	-5.72602	0	5.37397	168.435	27.8055	-0.18904	0.006	-0.784318	0	2.35979	0	0	0	0	0	0	0	0	0	0
6.65	3.14915	704.057	-23.1164	-0.226677	0.006	-0.400912	0	-5.80785	0	5.17734	171.406	27.9577	-0.189959	0.006	-0.784268	0	2.37716	0	0	0	0	0	0	0	0	0	0
6.66	3.05158	709.402	-23.0306	-0.226198	0.006	-0.400702	0	-5.86906	0	4.93004	174.128	28.0853	-0.190749	0.006	-0.784214	0	2.39095	0	0	0	0	0	0	0	0	0	0
6.67	2.78544	713.834	-23.0026	-0.22572	0.006	-0.400504	0	-5.90727	0	4.63101	176.548	28.1863	-0.191402	0.006	-0.784154	0	2.40066	0	0	0	0	0	0	0	0	0	0
6.68	2.35318	717.25	-23.0234	-0.225252	0.006	-0.400322	0	-5.92089	0	4.28056	178.622	28.2615	-0.191916	0.006	-0.784087	0	2.40607	0	0	0	0	0	0	0	0	0	0
6.69	1.76563	719.579	-23.0838	-0.224807	0.006	-0.400164	0	-5.90915	0	3.88078	180.313	28.3142	-0.192294	0.006	-0.784011	0	2.40718	0	0	0	0	0	0	0	0	0	0
6.7	1.04186	720.78	-23.175	-0.224393	0.006	-0.400033	0	-5.87202	0	3.43635	181.597	28.3505	-0.192542	0.006	-0.783929	0	2.40412	0	0	0	0	0	0	0	0	0	0
6.71	0.207825	720.845	-23.2889	-0.22402	0.006	-0.399935	0	-5.81021	0	2.95536	182.468	28.3794	-0.192674	0.006	-0.783841	0	2.39729	0	0	0	0	0	0	0	0	0	0
6.72	-0.705489	719.8	-23.4185	-0.223697	0.006	-0.399871	0	-5.72508	0	2.45002	182.932	28.4121	-0.192705	0.006	-0.78375	0	2.38715	0	0	0	0	0	0	0	0	0	0
6.73	-1.66363	717.704	-23.56	-0.223434	0.006	-0.399843	0	-5.61857	0	1.93652	183.007	28.4615	-0.192658	0.006	-0.783662	0	2.37419	0	0	0	0	0	0	0	0	0	0
6.74	-2.63008	714.639	-23.7127	-0.223239	0.006	-0.399853	0	-5.493	0	1.43361	182.72	28.5404	-0.192557	0.006	-0.783581	0	2.35875	0	0	0	0	0	0	0	0	0	0
6.75	-3.56761	710.707	-23.8794	-0.223121	0.006	-0.399898	0	-5.35076	0	0.960678	182.094	28.66	-0.192421	0.006	-0.783514	0	2.34116	0	0	0	0	0	0	0	0	0	0
6.76	-4.44013	706.018	-24.065	-0.223084	0.006	-0.399976	0	-5.19417	0	0.535704	181.15	28.8282	-0.192269	0.006	-0.783468	0	2.32171	0	0	0	0	0	0	0	0	0	0
6.77	-5.21621	700.687	-24.2756	-0.223134	0.006	-0.400084	0	-5.02554	0	0.173498	179.898	29.0481	-0.192113	0.006	-0.783449	0	2.30079	0	0	0	0	0	0	0	0	0	0
6.78	-5.87282	694.825	-24.5176	-0.223272	0.006	-0.400215	0	-4.84713	0	-0.115297	178.344	29.317	-0.191959	0.006	-0.783463	0	2.27888	0	0	0	0	0	0	0	0	0	0
6.79	-6.39752	688.536	-24.7973	-0.223498	0.006	-0.400366	0	-4.6611	0	-0.324295	176.488	29.627	-0.19181	0.006	-0.783514	0	2.25646	0	0	0	0	0	0	0	0	0	0
6.8	-6.78861	681.913	-25.1187	-0.223807	0.006	-0.40053	0	-4.46956	0	-0.450938	174.331	29.966	-0.191664	0.006	-0.783606	0	2.2341	0	0	0	0	0	0	0	0	0	0
6.81	-7.05329	675.028	-25.4825	-0.224195	0.006	-0.400702	0	-4.27453	0	-0.495795	171.877	30.3193	-0.191518	0.006	-0.78374	0	2.2124	0	0	0	0	0	0	0	0	0	0
6.82	-7.20506	667.938	-25.8864	-0.224654	0.006	-0.400877	0	-4.07796	0	-0.461636	169.14	30.6707	-0.191368	0.006	-0.783918	0	2.19192	0	0	0	0	0	0	0	0	0	0
6.83	-7.26257	660.68	-26.325	-0.225175	0.006	-0.401052	0	-3.88179	0	-0.353008	166.137	31.0036	-0.191214	0.006	-0.784135	0	2.17315	0	0	0	0	0	0	0	0	0	0
6.84	-7.24916	653.282	-26.789	-0.22575	0.006	-0.401224	0	-3.68819	0	-0.175954	162.896	31.3018	-0.191056	0.006	-0.784388	0	2.15653	0	0	0	0	0	0	0	0	0	0
6.85	-7.19195	645.771	-27.2658	-0.226368	0.006	-0.401392	0	-3.49957	0	0.0622406	159.444	31.5508	-0.190893	0.006	-0.784672	0	2.1422	0	0	0	0	0	0	0	0	0	0
6.86	-7.11948	638.17	-27.7403	-0.227023	0.006	-0.401554	0	-3.31851	0	0.353399	155.814	31.7384	-0.190729	0.006	-0.78498	0	2.13	0	0	0	0	0	0	0	0	0	0
6.87	-7.05718	630.501	-28.1972	-0.227707	0.006	-0.401713	0	-3.14761	0	0.68862	152.041	31.8556	-0.190566	0.006	-0.785306	0	2.11958	0	0	0	0	0	0	0	0	0	0
6.88	-7.02308	622.782	-28.6224	-0.228412	0.006	-0.401868	0	-2.98927	0	1.05847	148.16	31.8961	-0.190404	0.006	-0.78564	0	2.11043	0	0	0	0	0	0	0	0	0	0
6.89	-7.02706	615.025	-29.0067	-0.229135	0.006	-0.402021	0	-2.84542	0	1.45362	144.203	31.8566	-0.190246	0.006	-0.785972	0	2.1018	0	0	0	0	0	0	0	0	0	0
6.9	-7.0715	607.237	-29.3464	-0.22987	0.006	-0.402171	0	-2.71759	0	1.86568	140.207	31.7361	-0.190096	0.006	-0.786295	0	2.0929	0	0	0	0	0	0	0	0	0	0
6.91	-7.15115	599.421	-29.643	-0.230612	0.006	-0.402316	0	-2.60681	0	2.28723	136.203	31.5357	-0.189959	0.006	-0.786599	0	2.083	0	0	0	0	0	0	0	0	0	0
6.92	-7.25381	591.575	-29.9013	-0.231357	0.006	-0.402456	0	-2.51369	0	2.71183	132.224	31.2579	-0.189839	0.006	-0.786873	0	2.07124	0	0	0	0	0	0	0	0	0	0
6.93	-7.36261	583.691	-30.128	-0.2321	0.006	-0.402587	0	-2.43863	0	3.13411	128.299	30.907	-0.189739	0.006	-0.78711	0	2.05674	0	0	0	0	0	0	0	0	0	0
6.94	-7.46022	575.764	-30.3301	-0.232834	0.006	-0.402705	0	-2.38199	0	3.54969	124.456	30.4891	-0.189667	0.006	-0.787302	0	2.03866	0	0	0	0	0	0	0	0	0	0
6.95	-7.53237	567.785	-30.5138	-0.233551	0.006	-0.402806	0	-2.34406	0	3.95468	120.725	30.0126	-0.189633	0.006	-0.787441	0	2.01627	0	0	0	0	0	0	0	0	0	0
6.96	-7.56956	559.755	-30.6832	-0.234239	0.006	-0.402883	0	-2.32516	0	4.34512	117.129	29.4877	-0.189647	0.006	-0.787523	0	1.98887	0	0	0	0	0	0	0	0	0	0
6.97	-7.5679	551.683	-30.8414	-0.234887	0.006	-0.402931	0	-2.32546	0	4.71698	113.691	28.9264	-0.189719	0.006	-0.787543	0	1.95578	0	0	0	0	0	0	0	0	0	0
6.98	-7.52807	543.592	-30.9908	-0.23548	0.006	-0.402941	0	-2.34479	0	5.06574	110.431	28.3419	-0.189854	0.006	-0.787498	0	1.91643	0	0	0	0	0	0	0	0	0	0
6.99	-7.45373	535.521	-31.1361	-0.236005	0.006	-0.40291	0	-2.38256	0	5.386	107.367	27.7484	-0.190058	0.006	-0.787388	0	1.87033	0	0	0	0	0	0	0	0	0	0
7	-7.35041	527.53	-31.2839	-0.236451	0.006	-0.40283	0	-2.4377	0	5.67195	104.515	27.1603	-0.190331	0.006	-0.787215	0	1.81733	0	0	0	0	0	0	0	0	0	0
7.01	-7.22529	519.688	-31.4425	-0.236807	0.006	-0.402697	0	-2.5087	0	5.91796	101.892	26.5909	-0.190672	0.006	-0.786985	0	1.75763	0	0	0	0	0	0	0	0	0	0
7.02	-7.08637	512.084	-31.6209	-0.237066	0.006	-0.402507	0	-2.59354	0	6.11935	99.5104	26.0524	-0.191085	0.006	-0.786704	0	1.69176	0	0	0	0	0	0	0	0	0	0
7.03	-6.9423	504.815	-31.8259	-0.237227	0.006	-0.402263	0	-2.68989	0	6.27262	97.3806	25.5543	-0.19157	0.006	-0.786382	0	1.62063	0	0	0	0	0	0	0	0	0	0
7.04	-6.80381	497.991	-32.0602	-0.23729	0.006	-0.401965	0	-2.79529	0	6.37523	95.5072	25.1029	-0.192128	0.006	-0.786029	0	1.54534	0	0	0	0	0	0	0	0	0	0
7.05	-6.68549	491.718	-32.3225	-0.237264	0.006	-0.401621	0	-2.90727	0	6.42493	93.8879	24.7009	-0.192751	0.006	-0.785655	0	1.46727	0	0	0	0	0	0	0	0	0	0
7.06	-6.60412	486.087	-32.6081	-0.23716	0.006	-0.40124	0	-3.0235	0	6.41926	92.5117	24.3478	-0.193425	0.006	-0.78527	0	1.38766	0	0	0	0	0	0	0	0	0	0
7.07	-6.57431	481.172	-32.9099	-0.236995	0.006	-0.400834	0	-3.14187	0	6.35586	91.3603	24.0409	-0.194128	0.006	-0.784883	0	1.30753	0	0	0	0	0	0	0	0	0	0
7.08	-6.60599	477.027	-33.2178	-0.236791	0.006	-0.400418	0	-3.26057	0	6.23329	90.4101	23.7757	-0.194836	0.006	-0.784503	0	1.22769	0	0	0	0	0	0	0	0	0	0
7.09	-6.70296	473.686	-33.5189	-0.236574	0.006	-0.400007	0	-3.37803	0	6.05178	89.6353	23.5463	-0.195529	0.006	-0.784136	0	1.14894	0	0	0	0	0	0	0	0	0	0
7.1	-6.86172	471.159	-33.7984	-0.236375	0.006	-0.39962	0	-3.49281	0	5.81366	89.0095	23.3461	-0.19619	0.006	-0.783787	0	1.07198	0	0	0	0	0	0	0	0	0	0
7.11	-7.07315	469.425	-34.0419	-0.236222	0.006	-0.399272	0	-3.60346	0	5.52351	88.5087	23.1685	-0.196809	0.006	-0.783459	0	0.99753	0	0	0	0	0	0	0	0	0	0
7.12	-7.3241	468.439	-34.2364	-0.236143	0.006	-0.398976	0	-3.70859	0	5.18815	88.1134	23.0063	-0.197383	0.006	-0.783155	0	0.926238	0	0	0	0	0	0	0	0	0	0
7.13	-7.59717	468.126	-34.3711	-0.236159	0.006	-0.398746	0	-3.80687	0	4.8159	87.8086	22.853	-0.197912	0.006	-0.782878	0	0.858728	0	0	0	0	0	0	0	0	0	0
7.14	-7.87073	468.385	-34.437	-0.236286	0.006	-0.398589	0	-3.89689	0	4.41594	87.5828	22.7024	-0.1984	0.006	-0.782634	0	0.795645	0	0	0	0	0	0	0	0	0	0
7.15	-8.12137	469.092	-34.4272	-0.236535	0.006	-0.398507	0	-3.97726	0	3.9978	87.4263	22.5493	-0.198857	0.006	-0.782426	0	0.737696	0	0	0	0	0	0	0	0	0	0
7.16	-8.32749	470.101	-34.338	-0.236908	0.006	-0.398502	0	-4.04655	0	3.57137	87.3298	22.3896	-0.199295	0.006	-0.782259	0	0.685496	0	0	0	0	0	0	0	0	0	0
7.17	-8.47241	471.253	-34.167	-0.237403	0.006	-0.398569	0	-4.10336	0	3.1469	87.2848	22.2208	-0.199728	0.006	-0.782136	0	0.639552	0	0	0	0	0	0	0	0	0	0
7.18	-8.54585	472.386	-33.9123	-0.238011	0.006	-0.398704	0	-4.14644	0	2.73469	87.2857	22.0421	-0.200169	0.006	-0.782056	0	0.600284	0	0	0	0	0	0	0	0	0	0
7.19	-8.54334	473.343	-33.5722	-0.23872	0.006	-0.3989	0	-4.17473	0	2.34493	87.3305	21.8557	-0.200636	0.006	-0.782022	0	0.567927	0	0	0	0	0	0	0	0	0	0
